<?xml version="1.0" encoding="UTF-8" standalone="no"?>
<svg
   xmlns:dc="http://purl.org/dc/elements/1.1/"
   xmlns:cc="http://creativecommons.org/ns#"
   xmlns:rdf="http://www.w3.org/1999/02/22-rdf-syntax-ns#"
   xmlns:svg="http://www.w3.org/2000/svg"
   xmlns="http://www.w3.org/2000/svg"
   xmlns:sodipodi="http://sodipodi.sourceforge.net/DTD/sodipodi-0.dtd"
   xmlns:inkscape="http://www.inkscape.org/namespaces/inkscape"
   viewBox="0 0 720.00 504.00"
   id="svg2"
   version="1.1"
   inkscape:version="0.91 r13725"
   sodipodi:docname="leaders_percentage.svg">
  <metadata
     id="metadata336">
    <rdf:RDF>
      <cc:Work
         rdf:about="">
        <dc:format>image/svg+xml</dc:format>
        <dc:type
           rdf:resource="http://purl.org/dc/dcmitype/StillImage" />
      </cc:Work>
    </rdf:RDF>
  </metadata>
  <sodipodi:namedview
     pagecolor="#ffffff"
     bordercolor="#666666"
     borderopacity="1"
     objecttolerance="10"
     gridtolerance="10"
     guidetolerance="10"
     inkscape:pageopacity="0"
     inkscape:pageshadow="2"
     inkscape:window-width="1920"
     inkscape:window-height="1058"
     id="namedview334"
     showgrid="false"
     inkscape:zoom="1.4254587"
     inkscape:cx="322.62712"
     inkscape:cy="252"
     inkscape:window-x="1072"
     inkscape:window-y="-8"
     inkscape:window-maximized="1"
     inkscape:current-layer="svg2" />
  <defs
     id="defs4">
    <style
       type="text/css"
       id="style6"><![CDATA[
    line, polyline, polygon, path, rect, circle {
      fill: none;
      stroke: #000000;
      stroke-linecap: round;
      stroke-linejoin: round;
      stroke-miterlimit: 10.00;
    }
  ]]></style>
  </defs>
  <rect
     width="100%"
     height="100%"
     style="stroke: none; fill: #FFFFFF;"
     id="rect8" />
  <defs
     id="defs10">
    <clipPath
       id="cpNDMuNTR8NjUzLjIxfDQ2My4wNnwzOC44NQ==">
      <rect
         x="43.54"
         y="38.85"
         width="609.67"
         height="424.21"
         id="rect13" />
    </clipPath>
  </defs>
  <polyline
     points="43.54,463.06 653.21,463.06 "
     style="stroke-width: 0.53; stroke: #EBEBEB; stroke-linecap: butt;"
     clip-path="url(#cpNDMuNTR8NjUzLjIxfDQ2My4wNnwzOC44NQ==)"
     id="polyline15" />
  <polyline
     points="43.54,432.76 653.21,432.76 "
     style="stroke-width: 0.53; stroke: #EBEBEB; stroke-linecap: butt;"
     clip-path="url(#cpNDMuNTR8NjUzLjIxfDQ2My4wNnwzOC44NQ==)"
     id="polyline17" />
  <polyline
     points="43.54,372.16 653.21,372.16 "
     style="stroke-width: 0.53; stroke: #EBEBEB; stroke-linecap: butt;"
     clip-path="url(#cpNDMuNTR8NjUzLjIxfDQ2My4wNnwzOC44NQ==)"
     id="polyline19" />
  <polyline
     points="43.54,311.56 653.21,311.56 "
     style="stroke-width: 0.53; stroke: #EBEBEB; stroke-linecap: butt;"
     clip-path="url(#cpNDMuNTR8NjUzLjIxfDQ2My4wNnwzOC44NQ==)"
     id="polyline21" />
  <polyline
     points="43.54,250.96 653.21,250.96 "
     style="stroke-width: 0.53; stroke: #EBEBEB; stroke-linecap: butt;"
     clip-path="url(#cpNDMuNTR8NjUzLjIxfDQ2My4wNnwzOC44NQ==)"
     id="polyline23" />
  <polyline
     points="43.54,190.36 653.21,190.36 "
     style="stroke-width: 0.53; stroke: #EBEBEB; stroke-linecap: butt;"
     clip-path="url(#cpNDMuNTR8NjUzLjIxfDQ2My4wNnwzOC44NQ==)"
     id="polyline25" />
  <polyline
     points="43.54,129.76 653.21,129.76 "
     style="stroke-width: 0.53; stroke: #EBEBEB; stroke-linecap: butt;"
     clip-path="url(#cpNDMuNTR8NjUzLjIxfDQ2My4wNnwzOC44NQ==)"
     id="polyline27" />
  <polyline
     points="43.54,69.15 653.21,69.15 "
     style="stroke-width: 0.53; stroke: #EBEBEB; stroke-linecap: butt;"
     clip-path="url(#cpNDMuNTR8NjUzLjIxfDQ2My4wNnwzOC44NQ==)"
     id="polyline29" />
  <polyline
     points="180.60,463.06 180.60,38.85 "
     style="stroke-width: 0.53; stroke: #EBEBEB; stroke-linecap: butt;"
     clip-path="url(#cpNDMuNTR8NjUzLjIxfDQ2My4wNnwzOC44NQ==)"
     id="polyline31" />
  <polyline
     points="330.43,463.06 330.43,38.85 "
     style="stroke-width: 0.53; stroke: #EBEBEB; stroke-linecap: butt;"
     clip-path="url(#cpNDMuNTR8NjUzLjIxfDQ2My4wNnwzOC44NQ==)"
     id="polyline33" />
  <polyline
     points="480.26,463.06 480.26,38.85 "
     style="stroke-width: 0.53; stroke: #EBEBEB; stroke-linecap: butt;"
     clip-path="url(#cpNDMuNTR8NjUzLjIxfDQ2My4wNnwzOC44NQ==)"
     id="polyline35" />
  <polyline
     points="630.07,463.06 630.07,38.85 "
     style="stroke-width: 0.53; stroke: #EBEBEB; stroke-linecap: butt;"
     clip-path="url(#cpNDMuNTR8NjUzLjIxfDQ2My4wNnwzOC44NQ==)"
     id="polyline37" />
  <polyline
     points="43.54,402.46 653.21,402.46 "
     style="stroke-width: 1.07; stroke: #EBEBEB; stroke-linecap: butt;"
     clip-path="url(#cpNDMuNTR8NjUzLjIxfDQ2My4wNnwzOC44NQ==)"
     id="polyline39" />
  <polyline
     points="43.54,341.86 653.21,341.86 "
     style="stroke-width: 1.07; stroke: #EBEBEB; stroke-linecap: butt;"
     clip-path="url(#cpNDMuNTR8NjUzLjIxfDQ2My4wNnwzOC44NQ==)"
     id="polyline41" />
  <polyline
     points="43.54,281.26 653.21,281.26 "
     style="stroke-width: 1.07; stroke: #EBEBEB; stroke-linecap: butt;"
     clip-path="url(#cpNDMuNTR8NjUzLjIxfDQ2My4wNnwzOC44NQ==)"
     id="polyline43" />
  <polyline
     points="43.54,220.66 653.21,220.66 "
     style="stroke-width: 1.07; stroke: #EBEBEB; stroke-linecap: butt;"
     clip-path="url(#cpNDMuNTR8NjUzLjIxfDQ2My4wNnwzOC44NQ==)"
     id="polyline45" />
  <polyline
     points="43.54,160.06 653.21,160.06 "
     style="stroke-width: 1.07; stroke: #EBEBEB; stroke-linecap: butt;"
     clip-path="url(#cpNDMuNTR8NjUzLjIxfDQ2My4wNnwzOC44NQ==)"
     id="polyline47" />
  <polyline
     points="43.54,99.46 653.21,99.46 "
     style="stroke-width: 1.07; stroke: #EBEBEB; stroke-linecap: butt;"
     clip-path="url(#cpNDMuNTR8NjUzLjIxfDQ2My4wNnwzOC44NQ==)"
     id="polyline49" />
  <polyline
     points="43.54,38.85 653.21,38.85 "
     style="stroke-width: 1.07; stroke: #EBEBEB; stroke-linecap: butt;"
     clip-path="url(#cpNDMuNTR8NjUzLjIxfDQ2My4wNnwzOC44NQ==)"
     id="polyline51" />
  <polyline
     points="105.70,463.06 105.70,38.85 "
     style="stroke-width: 1.07; stroke: #EBEBEB; stroke-linecap: butt;"
     clip-path="url(#cpNDMuNTR8NjUzLjIxfDQ2My4wNnwzOC44NQ==)"
     id="polyline53" />
  <polyline
     points="255.51,463.06 255.51,38.85 "
     style="stroke-width: 1.07; stroke: #EBEBEB; stroke-linecap: butt;"
     clip-path="url(#cpNDMuNTR8NjUzLjIxfDQ2My4wNnwzOC44NQ==)"
     id="polyline55" />
  <polyline
     points="405.35,463.06 405.35,38.85 "
     style="stroke-width: 1.07; stroke: #EBEBEB; stroke-linecap: butt;"
     clip-path="url(#cpNDMuNTR8NjUzLjIxfDQ2My4wNnwzOC44NQ==)"
     id="polyline57" />
  <polyline
     points="555.16,463.06 555.16,38.85 "
     style="stroke-width: 1.07; stroke: #EBEBEB; stroke-linecap: butt;"
     clip-path="url(#cpNDMuNTR8NjUzLjIxfDQ2My4wNnwzOC44NQ==)"
     id="polyline59" />
  <line
     x1="43.54"
     y1="402.46"
     x2="653.21"
     y2="402.46"
     style="stroke-width: 1.07; stroke-linecap: butt;"
     clip-path="url(#cpNDMuNTR8NjUzLjIxfDQ2My4wNnwzOC44NQ==)"
     id="line61" />
  <line
     x1="43.54"
     y1="99.46"
     x2="653.21"
     y2="99.46"
     style="stroke-width: 1.07; stroke-dasharray: 5.69,5.69; stroke-linecap: butt;"
     clip-path="url(#cpNDMuNTR8NjUzLjIxfDQ2My4wNnwzOC44NQ==)"
     id="line63" />
  <circle
     cx="130.64"
     cy="359.17"
     r="2.49"
     style="stroke-width: 0.71; stroke: #E69F00; fill: #E69F00;"
     clip-path="url(#cpNDMuNTR8NjUzLjIxfDQ2My4wNnwzOC44NQ==)"
     id="circle65" />
  <circle
     cx="197.99"
     cy="99.46"
     r="2.49"
     style="stroke-width: 0.71; stroke: #E69F00; fill: #E69F00;"
     clip-path="url(#cpNDMuNTR8NjUzLjIxfDQ2My4wNnwzOC44NQ==)"
     id="circle67" />
  <circle
     cx="222.36"
     cy="380.56"
     r="2.49"
     style="stroke-width: 0.71; stroke: #999999; fill: #999999;"
     clip-path="url(#cpNDMuNTR8NjUzLjIxfDQ2My4wNnwzOC44NQ==)"
     id="circle69" />
  <circle
     cx="237.99"
     cy="378.58"
     r="2.49"
     style="stroke-width: 0.71; stroke: #999999; fill: #999999;"
     clip-path="url(#cpNDMuNTR8NjUzLjIxfDQ2My4wNnwzOC44NQ==)"
     id="circle71" />
  <circle
     cx="252.84"
     cy="396.90"
     r="2.49"
     style="stroke-width: 0.71; stroke: #999999; fill: #999999;"
     clip-path="url(#cpNDMuNTR8NjUzLjIxfDQ2My4wNnwzOC44NQ==)"
     id="circle73" />
  <circle
     cx="265.19"
     cy="394.27"
     r="2.49"
     style="stroke-width: 0.71; stroke: #999999; fill: #999999;"
     clip-path="url(#cpNDMuNTR8NjUzLjIxfDQ2My4wNnwzOC44NQ==)"
     id="circle75" />
  <circle
     cx="282.91"
     cy="250.96"
     r="2.49"
     style="stroke-width: 0.71; stroke: #E69F00; fill: #E69F00;"
     clip-path="url(#cpNDMuNTR8NjUzLjIxfDQ2My4wNnwzOC44NQ==)"
     id="circle77" />
  <circle
     cx="297.92"
     cy="276.21"
     r="2.49"
     style="stroke-width: 0.71; stroke: #E69F00; fill: #E69F00;"
     clip-path="url(#cpNDMuNTR8NjUzLjIxfDQ2My4wNnwzOC44NQ==)"
     id="circle79" />
  <circle
     cx="311.79"
     cy="288.83"
     r="2.49"
     style="stroke-width: 0.71; stroke: #E69F00; fill: #E69F00;"
     clip-path="url(#cpNDMuNTR8NjUzLjIxfDQ2My4wNnwzOC44NQ==)"
     id="circle81" />
  <circle
     cx="331.44"
     cy="290.24"
     r="2.49"
     style="stroke-width: 0.71; stroke: #E69F00; fill: #E69F00;"
     clip-path="url(#cpNDMuNTR8NjUzLjIxfDQ2My4wNnwzOC44NQ==)"
     id="circle83" />
  <circle
     cx="342.35"
     cy="250.96"
     r="2.49"
     style="stroke-width: 0.71; stroke: #999999; fill: #999999;"
     clip-path="url(#cpNDMuNTR8NjUzLjIxfDQ2My4wNnwzOC44NQ==)"
     id="circle85" />
  <circle
     cx="353.79"
     cy="318.29"
     r="2.49"
     style="stroke-width: 0.71; stroke: #E69F00; fill: #E69F00;"
     clip-path="url(#cpNDMuNTR8NjUzLjIxfDQ2My4wNnwzOC44NQ==)"
     id="circle87" />
  <circle
     cx="357.28"
     cy="292.28"
     r="2.49"
     style="stroke-width: 0.71; stroke: #999999; fill: #999999;"
     clip-path="url(#cpNDMuNTR8NjUzLjIxfDQ2My4wNnwzOC44NQ==)"
     id="circle89" />
  <circle
     cx="368.52"
     cy="332.54"
     r="2.49"
     style="stroke-width: 0.71; stroke: #E69F00; fill: #E69F00;"
     clip-path="url(#cpNDMuNTR8NjUzLjIxfDQ2My4wNnwzOC44NQ==)"
     id="circle91" />
  <circle
     cx="372.50"
     cy="315.89"
     r="2.49"
     style="stroke-width: 0.71; stroke: #999999; fill: #999999;"
     clip-path="url(#cpNDMuNTR8NjUzLjIxfDQ2My4wNnwzOC44NQ==)"
     id="circle93" />
  <circle
     cx="416.14"
     cy="323.42"
     r="2.49"
     style="stroke-width: 0.71; stroke: #E69F00; fill: #E69F00;"
     clip-path="url(#cpNDMuNTR8NjUzLjIxfDQ2My4wNnwzOC44NQ==)"
     id="circle95" />
  <circle
     cx="417.54"
     cy="329.74"
     r="2.49"
     style="stroke-width: 0.71; stroke: #E69F00; fill: #E69F00;"
     clip-path="url(#cpNDMuNTR8NjUzLjIxfDQ2My4wNnwzOC44NQ==)"
     id="circle97" />
  <circle
     cx="419.67"
     cy="312.68"
     r="2.49"
     style="stroke-width: 0.71; stroke: #E69F00; fill: #E69F00;"
     clip-path="url(#cpNDMuNTR8NjUzLjIxfDQ2My4wNnwzOC44NQ==)"
     id="circle99" />
  <circle
     cx="422.83"
     cy="315.89"
     r="2.49"
     style="stroke-width: 0.71; stroke: #E69F00; fill: #E69F00;"
     clip-path="url(#cpNDMuNTR8NjUzLjIxfDQ2My4wNnwzOC44NQ==)"
     id="circle101" />
  <circle
     cx="425.33"
     cy="318.87"
     r="2.49"
     style="stroke-width: 0.71; stroke: #E69F00; fill: #E69F00;"
     clip-path="url(#cpNDMuNTR8NjUzLjIxfDQ2My4wNnwzOC44NQ==)"
     id="circle103" />
  <circle
     cx="429.43"
     cy="321.66"
     r="2.49"
     style="stroke-width: 0.71; stroke: #E69F00; fill: #E69F00;"
     clip-path="url(#cpNDMuNTR8NjUzLjIxfDQ2My4wNnwzOC44NQ==)"
     id="circle105" />
  <circle
     cx="442.27"
     cy="266.11"
     r="2.49"
     style="stroke-width: 0.71; stroke: #E69F00; fill: #E69F00;"
     clip-path="url(#cpNDMuNTR8NjUzLjIxfDQ2My4wNnwzOC44NQ==)"
     id="circle107" />
  <circle
     cx="458.07"
     cy="281.26"
     r="2.49"
     style="stroke-width: 0.71; stroke: #E69F00; fill: #E69F00;"
     clip-path="url(#cpNDMuNTR8NjUzLjIxfDQ2My4wNnwzOC44NQ==)"
     id="circle109" />
  <circle
     cx="463.03"
     cy="395.41"
     r="2.49"
     style="stroke-width: 0.71; stroke: #999999; fill: #999999;"
     clip-path="url(#cpNDMuNTR8NjUzLjIxfDQ2My4wNnwzOC44NQ==)"
     id="circle111" />
  <circle
     cx="492.89"
     cy="394.47"
     r="2.49"
     style="stroke-width: 0.71; stroke: #999999; fill: #999999;"
     clip-path="url(#cpNDMuNTR8NjUzLjIxfDQ2My4wNnwzOC44NQ==)"
     id="circle113" />
  <circle
     cx="507.29"
     cy="250.96"
     r="2.49"
     style="stroke-width: 0.71; stroke: #E69F00; fill: #E69F00;"
     clip-path="url(#cpNDMuNTR8NjUzLjIxfDQ2My4wNnwzOC44NQ==)"
     id="circle115" />
  <circle
     cx="509.71"
     cy="395.35"
     r="2.49"
     style="stroke-width: 0.71; stroke: #999999; fill: #999999;"
     clip-path="url(#cpNDMuNTR8NjUzLjIxfDQ2My4wNnwzOC44NQ==)"
     id="circle117" />
  <circle
     cx="509.75"
     cy="229.31"
     r="2.49"
     style="stroke-width: 0.71; stroke: #E69F00; fill: #E69F00;"
     clip-path="url(#cpNDMuNTR8NjUzLjIxfDQ2My4wNnwzOC44NQ==)"
     id="circle119" />
  <circle
     cx="512.42"
     cy="237.18"
     r="2.49"
     style="stroke-width: 0.71; stroke: #E69F00; fill: #E69F00;"
     clip-path="url(#cpNDMuNTR8NjUzLjIxfDQ2My4wNnwzOC44NQ==)"
     id="circle121" />
  <circle
     cx="513.77"
     cy="250.96"
     r="2.49"
     style="stroke-width: 0.71; stroke: #E69F00; fill: #E69F00;"
     clip-path="url(#cpNDMuNTR8NjUzLjIxfDQ2My4wNnwzOC44NQ==)"
     id="circle123" />
  <circle
     cx="518.74"
     cy="232.78"
     r="2.49"
     style="stroke-width: 0.71; stroke: #E69F00; fill: #E69F00;"
     clip-path="url(#cpNDMuNTR8NjUzLjIxfDQ2My4wNnwzOC44NQ==)"
     id="circle125" />
  <circle
     cx="522.18"
     cy="222.90"
     r="2.49"
     style="stroke-width: 0.71; stroke: #E69F00; fill: #E69F00;"
     clip-path="url(#cpNDMuNTR8NjUzLjIxfDQ2My4wNnwzOC44NQ==)"
     id="circle127" />
  <circle
     cx="526.78"
     cy="205.92"
     r="2.49"
     style="stroke-width: 0.71; stroke: #E69F00; fill: #E69F00;"
     clip-path="url(#cpNDMuNTR8NjUzLjIxfDQ2My4wNnwzOC44NQ==)"
     id="circle129" />
  <circle
     cx="541.99"
     cy="204.85"
     r="2.49"
     style="stroke-width: 0.71; stroke: #E69F00; fill: #E69F00;"
     clip-path="url(#cpNDMuNTR8NjUzLjIxfDQ2My4wNnwzOC44NQ==)"
     id="circle131" />
  <circle
     cx="560.95"
     cy="200.46"
     r="2.49"
     style="stroke-width: 0.71; stroke: #E69F00; fill: #E69F00;"
     clip-path="url(#cpNDMuNTR8NjUzLjIxfDQ2My4wNnwzOC44NQ==)"
     id="circle133" />
  <circle
     cx="563.53"
     cy="204.58"
     r="2.49"
     style="stroke-width: 0.71; stroke: #E69F00; fill: #E69F00;"
     clip-path="url(#cpNDMuNTR8NjUzLjIxfDQ2My4wNnwzOC44NQ==)"
     id="circle135" />
  <circle
     cx="566.11"
     cy="212.34"
     r="2.49"
     style="stroke-width: 0.71; stroke: #E69F00; fill: #E69F00;"
     clip-path="url(#cpNDMuNTR8NjUzLjIxfDQ2My4wNnwzOC44NQ==)"
     id="circle137" />
  <polyline
     points="222.36,380.56 237.99,378.58 "
     style="stroke-width: 1.07; stroke: #999999; stroke-linecap: butt;"
     clip-path="url(#cpNDMuNTR8NjUzLjIxfDQ2My4wNnwzOC44NQ==)"
     id="polyline139" />
  <polyline
     points="252.84,396.90 265.19,394.27 463.03,395.41 492.89,394.47 509.71,395.35 "
     style="stroke-width: 1.07; stroke: #999999; stroke-dasharray: 2.85,2.85; stroke-linecap: butt;"
     clip-path="url(#cpNDMuNTR8NjUzLjIxfDQ2My4wNnwzOC44NQ==)"
     id="polyline141" />
  <polyline
     points="342.35,250.96 357.28,292.28 372.50,315.89 "
     style="stroke-width: 1.07; stroke: #999999; stroke-dasharray: 5.69,2.85; stroke-linecap: butt;"
     clip-path="url(#cpNDMuNTR8NjUzLjIxfDQ2My4wNnwzOC44NQ==)"
     id="polyline143" />
  <polyline
     points="282.91,250.96 297.92,276.21 311.79,288.83 "
     style="stroke-width: 1.07; stroke: #E69F00; stroke-dasharray: 1.42,4.27,5.69,4.27; stroke-linecap: butt;"
     clip-path="url(#cpNDMuNTR8NjUzLjIxfDQ2My4wNnwzOC44NQ==)"
     id="polyline145" />
  <polyline
     points="331.44,290.24 353.79,318.29 368.52,332.54 "
     style="stroke-width: 1.07; stroke: #E69F00; stroke-dasharray: 9.96,4.27; stroke-linecap: butt;"
     clip-path="url(#cpNDMuNTR8NjUzLjIxfDQ2My4wNnwzOC44NQ==)"
     id="polyline147" />
  <polyline
     points="416.14,323.42 417.54,329.74 419.67,312.68 422.83,315.89 425.33,318.87 429.43,321.66 442.27,266.11 458.07,281.26 "
     style="stroke-width: 1.07; stroke: #E69F00; stroke-dasharray: 2.85,2.85,8.54,2.85; stroke-linecap: butt;"
     clip-path="url(#cpNDMuNTR8NjUzLjIxfDQ2My4wNnwzOC44NQ==)"
     id="polyline149" />
  <polyline
     points="507.29,250.96 509.75,229.31 512.42,237.18 513.77,250.96 518.74,232.78 522.18,222.90 526.78,205.92 541.99,204.85 560.95,200.46 563.53,204.58 566.11,212.34 "
     style="stroke-width: 1.07; stroke: #E69F00; stroke-dasharray: 1.42,2.85,2.85,2.85,4.27,2.85,5.69,2.85; stroke-linecap: butt;"
     clip-path="url(#cpNDMuNTR8NjUzLjIxfDQ2My4wNnwzOC44NQ==)"
     id="polyline151" />
  <line
     x1="180.56"
     y1="380.79001"
     x2="134.24001"
     y2="360.01999"
     style="fill:none;stroke:#e69f00;stroke-width:0.43000001;stroke-linecap:round;stroke-linejoin:round;stroke-miterlimit:10"
     clip-path="url(#cpNDMuNTR8NjUzLjIxfDQ2My4wNnwzOC44NQ==)"
     id="line153"
     transform="matrix(-0.48246363,0,0,-1.3268732,198.61411,837.33198)" />
  <g
     id="g4469"
     transform="translate(-122.7675,-56.823814)">
    <polygon
       id="polygon155"
       clip-path="url(#cpNDMuNTR8NjUzLjIxfDQ2My4wNnwzOC44NQ==)"
       style="fill:#ffffff;stroke:#e69f00;stroke-width:0.52999997;stroke-linecap:round;stroke-linejoin:round;stroke-miterlimit:10"
       points="268.61,390.32 268.52,390.32 268.87,390.31 269.21,390.24 269.53,390.12 269.84,389.94 270.1,389.72 270.34,389.46 270.52,389.17 270.66,388.85 270.74,388.51 270.77,388.16 270.77,388.16 270.77,375.1 270.77,375.1 270.74,374.75 270.66,374.42 270.52,374.1 270.34,373.8 270.1,373.54 269.84,373.32 269.53,373.15 269.21,373.03 268.87,372.96 268.61,372.94 182.72,372.94 182.98,372.96 182.63,372.94 182.29,372.98 181.95,373.08 181.64,373.23 181.35,373.43 181.1,373.67 180.89,373.95 180.73,374.25 180.62,374.58 180.56,374.93 180.56,375.1 180.56,388.16 180.56,387.99 180.56,388.34 180.62,388.68 180.73,389.01 180.89,389.32 181.1,389.6 181.35,389.84 181.64,390.03 181.95,390.18 182.29,390.28 182.63,390.32 182.72,390.32 " />
    <g
       id="g157"
       clip-path="url(#cpNDMuNTR8NjUzLjIxfDQ2My4wNnwzOC44NQ==)">
      <text
         id="text159"
         lengthAdjust="spacingAndGlyphs"
         textLength="83.01px"
         style="font-size:14.22999954px;font-family:Arial;fill:#e69f00"
         y="386.72"
         x="184.16">Civilizations I</text>
    </g>
  </g>
  <line
     x1="163.46001"
     y1="210.49001"
     x2="196.92999"
     y2="103.06"
     style="fill:none;stroke:#e69f00;stroke-width:0.43000001;stroke-linecap:round;stroke-linejoin:round;stroke-miterlimit:10"
     clip-path="url(#cpNDMuNTR8NjUzLjIxfDQ2My4wNnwzOC44NQ==)"
     id="line161"
     transform="matrix(0.98522864,0,0,0.27710085,3.0124896,74.397681)" />
  <g
     id="g4479"
     transform="translate(-44.1963,-77.869671)">
    <polygon
       id="polygon163"
       clip-path="url(#cpNDMuNTR8NjUzLjIxfDQ2My4wNnwzOC44NQ==)"
       style="fill:#ffffff;stroke:#e69f00;stroke-width:0.52999997;stroke-linecap:round;stroke-linejoin:round;stroke-miterlimit:10"
       points="207.55,227.87 207.46,227.87 207.81,227.86 208.15,227.79 208.47,227.66 208.77,227.49 209.04,227.27 209.27,227.01 209.46,226.71 209.6,226.39 209.68,226.06 209.71,225.71 209.71,225.71 209.71,212.65 209.71,212.65 209.68,212.3 209.6,211.96 209.46,211.64 209.27,211.35 209.04,211.09 208.77,210.87 208.47,210.7 208.15,210.57 207.81,210.5 207.55,210.49 117.7,210.49 117.96,210.5 117.62,210.49 117.27,210.53 116.94,210.63 116.62,210.78 116.34,210.97 116.09,211.21 115.88,211.49 115.72,211.8 115.61,212.13 115.55,212.47 115.54,212.65 115.54,225.71 115.55,225.54 115.55,225.88 115.61,226.23 115.72,226.56 115.88,226.87 116.09,227.14 116.34,227.38 116.62,227.58 116.94,227.73 117.27,227.83 117.62,227.87 117.7,227.87 " />
    <g
       id="g165"
       clip-path="url(#cpNDMuNTR8NjUzLjIxfDQ2My4wNnwzOC44NQ==)">
      <text
         id="text167"
         lengthAdjust="spacingAndGlyphs"
         textLength="86.96px"
         style="font-size:14.22999954px;font-family:Arial;fill:#e69f00"
         y="224.27"
         x="119.14">Civilizations II</text>
    </g>
  </g>
  <line
     x1="304.42999"
     y1="128.24001"
     x2="283.5"
     y2="247.36"
     style="fill:none;stroke:#e69f00;stroke-width:0.43000001;stroke-linecap:round;stroke-linejoin:round;stroke-miterlimit:10"
     clip-path="url(#cpNDMuNTR8NjUzLjIxfDQ2My4wNnwzOC44NQ==)"
     id="line169"
     transform="matrix(-1.3926472,0,0,0.15939933,677.74871,208.0241)" />
  <g
     id="g4484"
     transform="translate(-95.407885,110.84151)">
    <polygon
       id="polygon171"
       clip-path="url(#cpNDMuNTR8NjUzLjIxfDQ2My4wNnwzOC44NQ==)"
       style="fill:#ffffff;stroke:#e69f00;stroke-width:0.52999997;stroke-linecap:round;stroke-linejoin:round;stroke-miterlimit:10"
       points="351.49,128.24 351.41,128.24 351.75,128.22 352.09,128.15 352.42,128.03 352.72,127.86 352.99,127.64 353.22,127.38 353.41,127.08 353.54,126.76 353.63,126.42 353.65,126.08 353.65,126.08 353.65,113.01 353.65,113.01 353.63,112.67 353.54,112.33 353.41,112.01 353.22,111.72 352.99,111.46 352.72,111.24 352.42,111.06 352.09,110.94 351.75,110.87 351.49,110.85 257.7,110.85 257.96,110.87 257.61,110.86 257.27,110.9 256.93,110.99 256.62,111.14 256.33,111.34 256.08,111.58 255.87,111.86 255.71,112.17 255.6,112.5 255.55,112.84 255.54,113.01 255.54,126.08 255.55,125.9 255.55,126.25 255.6,126.59 255.71,126.92 255.87,127.23 256.08,127.51 256.33,127.75 256.62,127.95 256.93,128.1 257.27,128.19 257.61,128.24 257.7,128.24 " />
    <g
       id="g173"
       clip-path="url(#cpNDMuNTR8NjUzLjIxfDQ2My4wNnwzOC44NQ==)">
      <text
         id="text175"
         lengthAdjust="spacingAndGlyphs"
         textLength="90.92px"
         style="font-size:14.22999954px;font-family:Arial;fill:#e69f00"
         y="124.64"
         x="259.14001">Civilizations III</text>
    </g>
  </g>
  <line
     x1="367.25"
     y1="220.23"
     x2="335.04"
     y2="287.25"
     style="stroke-width: 0.43; stroke: #E69F00;"
     clip-path="url(#cpNDMuNTR8NjUzLjIxfDQ2My4wNnwzOC44NQ==)"
     id="line177" />
  <polygon
     points="369.41,227.98 464.79,227.98 464.71,227.98 465.05,227.96 465.39,227.89 465.72,227.77 466.02,227.60 466.29,227.38 466.52,227.12 466.71,226.82 466.84,226.50 466.92,226.17 466.95,225.82 466.95,225.82 466.95,212.76 466.95,212.76 466.92,212.41 466.84,212.07 466.71,211.75 466.52,211.46 466.29,211.20 466.02,210.98 465.72,210.81 465.39,210.68 465.05,210.61 464.79,210.60 369.41,210.60 369.67,210.61 369.33,210.60 368.98,210.64 368.65,210.74 368.33,210.89 368.05,211.08 367.80,211.32 367.59,211.60 367.43,211.91 367.32,212.24 367.26,212.58 367.25,212.76 367.25,225.82 367.26,225.65 367.26,225.99 367.32,226.34 367.43,226.67 367.59,226.97 367.80,227.25 368.05,227.49 368.33,227.69 368.65,227.84 368.98,227.94 369.33,227.98 "
     style="stroke-width: 0.53; stroke: #E69F00; fill: #FFFFFF;"
     clip-path="url(#cpNDMuNTR8NjUzLjIxfDQ2My4wNnwzOC44NQ==)"
     id="polygon179" />
  <g
     clip-path="url(#cpNDMuNTR8NjUzLjIxfDQ2My4wNnwzOC44NQ==)"
     id="g181"
     transform="translate(0,-0.70152857)">
    <text
       x="370.85001"
       y="224.38"
       style="font-size:14.22999954px;font-family:Arial;fill:#e69f00"
       textLength="92.50px"
       lengthAdjust="spacingAndGlyphs"
       id="text183">Civilizations IV</text>
  </g>
  <line
     x1="485.45999"
     y1="381.63"
     x2="419.73999"
     y2="325.23001"
     style="fill:none;stroke:#e69f00;stroke-width:0.43000001;stroke-linecap:round;stroke-linejoin:round;stroke-miterlimit:10"
     clip-path="url(#cpNDMuNTR8NjUzLjIxfDQ2My4wNnwzOC44NQ==)"
     id="line185"
     transform="matrix(0.87440135,0,0,0.44317353,52.636779,181.01479)" />
  <polygon
     points="579.05,391.06 578.96,391.06 579.31,391.05 579.65,390.98 579.98,390.85 580.28,390.68 580.55,390.46 580.78,390.2 580.96,389.91 581.1,389.59 581.18,389.25 581.21,388.9 581.21,388.9 581.21,375.84 581.21,375.84 581.18,375.49 581.1,375.15 580.96,374.83 580.78,374.54 580.55,374.28 580.28,374.06 579.98,373.89 579.65,373.76 579.31,373.69 579.05,373.68 487.62,373.68 487.88,373.69 487.54,373.68 487.19,373.72 486.86,373.82 486.54,373.97 486.26,374.16 486.01,374.41 485.8,374.68 485.64,374.99 485.53,375.32 485.47,375.66 485.46,375.84 485.46,388.9 485.47,388.73 485.47,389.08 485.53,389.42 485.64,389.75 485.8,390.06 486.01,390.33 486.26,390.57 486.54,390.77 486.86,390.92 487.19,391.02 487.54,391.06 487.62,391.06 "
     style="fill:#ffffff;stroke:#e69f00;stroke-width:0.52999997;stroke-linecap:round;stroke-linejoin:round;stroke-miterlimit:10"
     clip-path="url(#cpNDMuNTR8NjUzLjIxfDQ2My4wNnwzOC44NQ==)"
     id="polygon187"
     transform="translate(-7.7168142,-31.568785)" />
  <g
     clip-path="url(#cpNDMuNTR8NjUzLjIxfDQ2My4wNnwzOC44NQ==)"
     id="g189"
     transform="translate(-7.7168142,-31.568785)">
    <text
       x="489.06"
       y="387.45999"
       style="font-size:14.22999954px;font-family:Arial;fill:#e69f00"
       textLength="88.55px"
       lengthAdjust="spacingAndGlyphs"
       id="text191">Civilizations V</text>
  </g>
  <line
     x1="531.14"
     y1="128.24"
     x2="507.95"
     y2="247.36"
     style="stroke-width: 0.43; stroke: #E69F00;"
     clip-path="url(#cpNDMuNTR8NjUzLjIxfDQ2My4wNnwzOC44NQ==)"
     id="line193" />
  <polygon
     points="483.67,128.24 579.05,128.24 578.96,128.24 579.31,128.22 579.65,128.15 579.98,128.03 580.28,127.86 580.55,127.64 580.78,127.38 580.96,127.08 581.10,126.76 581.18,126.42 581.21,126.08 581.21,126.08 581.21,113.01 581.21,113.01 581.18,112.67 581.10,112.33 580.96,112.01 580.78,111.72 580.55,111.46 580.28,111.24 579.98,111.06 579.65,110.94 579.31,110.87 579.05,110.85 483.67,110.85 483.93,110.87 483.58,110.86 483.24,110.90 482.90,110.99 482.59,111.14 482.30,111.34 482.05,111.58 481.85,111.86 481.68,112.17 481.57,112.50 481.52,112.84 481.51,113.01 481.51,126.08 481.52,125.90 481.52,126.25 481.57,126.59 481.68,126.92 481.85,127.23 482.05,127.51 482.30,127.75 482.59,127.95 482.90,128.10 483.24,128.19 483.58,128.24 "
     style="stroke-width: 0.53; stroke: #E69F00; fill: #FFFFFF;"
     clip-path="url(#cpNDMuNTR8NjUzLjIxfDQ2My4wNnwzOC44NQ==)"
     id="polygon195" />
  <g
     clip-path="url(#cpNDMuNTR8NjUzLjIxfDQ2My4wNnwzOC44NQ==)"
     id="g197">
    <text
       x="485.11"
       y="124.64"
       style="font-size: 14.23px; fill: #E69F00; font-family: Arial;"
       textLength="92.50px"
       lengthAdjust="spacingAndGlyphs"
       id="text199">Civilizations VI</text>
  </g>
  <line
     x1="178"
     y1="291.23001"
     x2="220.62"
     y2="376.95999"
     style="fill:none;stroke:#999999;stroke-width:0.43000001;stroke-linecap:round;stroke-linejoin:round;stroke-miterlimit:10"
     clip-path="url(#cpNDMuNTR8NjUzLjIxfDQ2My4wNnwzOC44NQ==)"
     id="line201"
     transform="matrix(0.92076878,0,0,-0.52977936,17.545396,577.03532)" />
  <g
     id="g4474"
     transform="translate(0,151.53017)">
    <polygon
       id="polygon203"
       clip-path="url(#cpNDMuNTR8NjUzLjIxfDQ2My4wNnwzOC44NQ==)"
       style="fill:#ffffff;stroke:#999999;stroke-width:0.52999997;stroke-linecap:round;stroke-linejoin:round;stroke-miterlimit:10"
       points="229.11,291.23 229.02,291.23 229.37,291.21 229.71,291.14 230.04,291.02 230.34,290.85 230.61,290.63 230.84,290.37 231.02,290.07 231.16,289.75 231.24,289.41 231.27,289.07 231.27,289.07 231.27,276 231.27,276 231.24,275.66 231.16,275.32 231.02,275 230.84,274.71 230.61,274.45 230.34,274.23 230.04,274.05 229.71,273.93 229.37,273.86 229.11,273.84 121.07,273.84 121.33,273.86 120.98,273.85 120.64,273.89 120.3,273.98 119.99,274.13 119.7,274.33 119.45,274.57 119.24,274.85 119.08,275.16 118.97,275.49 118.91,275.83 118.91,276 118.91,289.07 118.91,288.89 118.91,289.24 118.97,289.58 119.08,289.91 119.24,290.22 119.45,290.5 119.7,290.74 119.99,290.94 120.3,291.09 120.64,291.18 120.98,291.23 121.07,291.23 " />
    <g
       id="g205"
       clip-path="url(#cpNDMuNTR8NjUzLjIxfDQ2My4wNnwzOC44NQ==)">
      <text
         id="text207"
         lengthAdjust="spacingAndGlyphs"
         textLength="105.16px"
         style="font-size:14.22999954px;font-family:Arial;fill:#999999"
         y="287.63"
         x="122.51">Age of Empires I</text>
    </g>
  </g>
  <line
     x1="334.04001"
     y1="382.60001"
     x2="256.44"
     y2="396.53"
     style="fill:none;stroke:#999999;stroke-width:0.43000001;stroke-linecap:round;stroke-linejoin:round;stroke-miterlimit:10"
     clip-path="url(#cpNDMuNTR8NjUzLjIxfDQ2My4wNnwzOC44NQ==)"
     id="line209"
     transform="matrix(0.8805602,0,0,-2.0499769,30.703471,1209.9116)" />
  <g
     id="g4464"
     transform="translate(-9.1198713,51.211585)">
    <polygon
       id="polygon211"
       clip-path="url(#cpNDMuNTR8NjUzLjIxfDQ2My4wNnwzOC44NQ==)"
       style="fill:#ffffff;stroke:#999999;stroke-width:0.52999997;stroke-linecap:round;stroke-linejoin:round;stroke-miterlimit:10"
       points="448.19,391.06 448.1,391.06 448.45,391.05 448.79,390.98 449.12,390.85 449.42,390.68 449.69,390.46 449.92,390.2 450.1,389.91 450.24,389.59 450.32,389.25 450.35,388.9 450.35,388.9 450.35,375.84 450.35,375.84 450.32,375.49 450.24,375.15 450.1,374.83 449.92,374.54 449.69,374.28 449.42,374.06 449.12,373.89 448.79,373.76 448.45,373.69 448.19,373.68 336.2,373.68 336.46,373.69 336.11,373.68 335.76,373.72 335.43,373.82 335.12,373.97 334.83,374.16 334.58,374.41 334.37,374.68 334.21,374.99 334.1,375.32 334.04,375.66 334.04,375.84 334.04,388.9 334.04,388.73 334.04,389.08 334.1,389.42 334.21,389.75 334.37,390.06 334.58,390.33 334.83,390.57 335.12,390.77 335.43,390.92 335.76,391.02 336.11,391.06 336.2,391.06 " />
    <g
       id="g213"
       clip-path="url(#cpNDMuNTR8NjUzLjIxfDQ2My4wNnwzOC44NQ==)">
      <text
         id="text215"
         lengthAdjust="spacingAndGlyphs"
         textLength="109.12px"
         style="font-size:14.22999954px;font-family:Arial;fill:#999999"
         y="387.45999"
         x="337.64001">Age of Empires II</text>
    </g>
  </g>
  <line
     x1="409.29001"
     y1="163.72"
     x2="345.95001"
     y2="248.47"
     style="fill:none;stroke:#999999;stroke-width:0.43000001;stroke-linecap:round;stroke-linejoin:round;stroke-miterlimit:10"
     clip-path="url(#cpNDMuNTR8NjUzLjIxfDQ2My4wNnwzOC44NQ==)"
     id="line217"
     transform="matrix(-0.40695362,0,0,0.72918792,480.08226,65.985178)" />
  <g
     id="g4489"
     transform="translate(-171.8745,12.627514)">
    <polygon
       id="polygon219"
       clip-path="url(#cpNDMuNTR8NjUzLjIxfDQ2My4wNnwzOC44NQ==)"
       style="fill:#ffffff;stroke:#999999;stroke-width:0.52999997;stroke-linecap:round;stroke-linejoin:round;stroke-miterlimit:10"
       points="527.39,171.75 527.31,171.75 527.65,171.73 527.99,171.66 528.32,171.54 528.62,171.37 528.89,171.15 529.12,170.89 529.31,170.59 529.44,170.27 529.53,169.93 529.55,169.59 529.55,169.59 529.55,156.52 529.55,156.52 529.53,156.18 529.44,155.84 529.31,155.52 529.12,155.23 528.89,154.97 528.62,154.75 528.32,154.57 527.99,154.45 527.65,154.38 527.39,154.36 411.45,154.36 411.71,154.38 411.36,154.37 411.01,154.41 410.68,154.51 410.37,154.65 410.08,154.85 409.83,155.09 409.62,155.37 409.46,155.68 409.35,156.01 409.29,156.35 409.29,156.52 409.29,169.59 409.29,169.41 409.29,169.76 409.35,170.11 409.46,170.43 409.62,170.74 409.83,171.02 410.08,171.26 410.37,171.46 410.68,171.61 411.01,171.7 411.36,171.75 411.45,171.75 " />
    <g
       id="g221"
       clip-path="url(#cpNDMuNTR8NjUzLjIxfDQ2My4wNnwzOC44NQ==)">
      <text
         id="text223"
         lengthAdjust="spacingAndGlyphs"
         textLength="113.07px"
         style="font-size:14.22999954px;font-family:Arial;fill:#999999"
         y="168.14999"
         x="412.89001">Age of Empires III</text>
    </g>
  </g>
  <defs
     id="defs225">
    <clipPath
       id="cpMC4wMHw3MjAuMDB8NTA0LjAwfDAuMDA=">
      <rect
         x="0.00"
         y="0.00"
         width="720.00"
         height="504.00"
         id="rect228" />
    </clipPath>
  </defs>
  <g
     clip-path="url(#cpMC4wMHw3MjAuMDB8NTA0LjAwfDAuMDA=)"
     id="g230">
    <text
       x="30.83"
       y="407.47"
       style="font-size: 14.00px; fill: #4D4D4D; font-family: Arial;"
       textLength="7.79px"
       lengthAdjust="spacingAndGlyphs"
       id="text232">0</text>
  </g>
  <g
     clip-path="url(#cpMC4wMHw3MjAuMDB8NTA0LjAwfDAuMDA=)"
     id="g234">
    <text
       x="23.04"
       y="346.87"
       style="font-size: 14.00px; fill: #4D4D4D; font-family: Arial;"
       textLength="15.57px"
       lengthAdjust="spacingAndGlyphs"
       id="text236">10</text>
  </g>
  <g
     clip-path="url(#cpMC4wMHw3MjAuMDB8NTA0LjAwfDAuMDA=)"
     id="g238">
    <text
       x="23.04"
       y="286.27"
       style="font-size: 14.00px; fill: #4D4D4D; font-family: Arial;"
       textLength="15.57px"
       lengthAdjust="spacingAndGlyphs"
       id="text240">20</text>
  </g>
  <g
     clip-path="url(#cpMC4wMHw3MjAuMDB8NTA0LjAwfDAuMDA=)"
     id="g242">
    <text
       x="23.04"
       y="225.67"
       style="font-size: 14.00px; fill: #4D4D4D; font-family: Arial;"
       textLength="15.57px"
       lengthAdjust="spacingAndGlyphs"
       id="text244">30</text>
  </g>
  <g
     clip-path="url(#cpMC4wMHw3MjAuMDB8NTA0LjAwfDAuMDA=)"
     id="g246">
    <text
       x="23.04"
       y="165.07"
       style="font-size: 14.00px; fill: #4D4D4D; font-family: Arial;"
       textLength="15.57px"
       lengthAdjust="spacingAndGlyphs"
       id="text248">40</text>
  </g>
  <g
     clip-path="url(#cpMC4wMHw3MjAuMDB8NTA0LjAwfDAuMDA=)"
     id="g250">
    <text
       x="23.04"
       y="104.47"
       style="font-size: 14.00px; fill: #4D4D4D; font-family: Arial;"
       textLength="15.57px"
       lengthAdjust="spacingAndGlyphs"
       id="text252">50</text>
  </g>
  <g
     clip-path="url(#cpMC4wMHw3MjAuMDB8NTA0LjAwfDAuMDA=)"
     id="g254">
    <text
       x="23.04"
       y="43.86"
       style="font-size: 14.00px; fill: #4D4D4D; font-family: Arial;"
       textLength="15.57px"
       lengthAdjust="spacingAndGlyphs"
       id="text256">60</text>
  </g>
  <g
     clip-path="url(#cpMC4wMHw3MjAuMDB8NTA0LjAwfDAuMDA=)"
     id="g258">
    <text
       x="90.13"
       y="478.01"
       style="font-size: 14.00px; fill: #4D4D4D; font-family: Arial;"
       textLength="31.14px"
       lengthAdjust="spacingAndGlyphs"
       id="text260">1990</text>
  </g>
  <g
     clip-path="url(#cpMC4wMHw3MjAuMDB8NTA0LjAwfDAuMDA=)"
     id="g262">
    <text
       x="239.93"
       y="478.01"
       style="font-size: 14.00px; fill: #4D4D4D; font-family: Arial;"
       textLength="31.14px"
       lengthAdjust="spacingAndGlyphs"
       id="text264">2000</text>
  </g>
  <g
     clip-path="url(#cpMC4wMHw3MjAuMDB8NTA0LjAwfDAuMDA=)"
     id="g266">
    <text
       x="389.78"
       y="478.01"
       style="font-size: 14.00px; fill: #4D4D4D; font-family: Arial;"
       textLength="31.14px"
       lengthAdjust="spacingAndGlyphs"
       id="text268">2010</text>
  </g>
  <g
     clip-path="url(#cpMC4wMHw3MjAuMDB8NTA0LjAwfDAuMDA=)"
     id="g270">
    <text
       x="539.59"
       y="478.01"
       style="font-size: 14.00px; fill: #4D4D4D; font-family: Arial;"
       textLength="31.14px"
       lengthAdjust="spacingAndGlyphs"
       id="text272">2020</text>
  </g>
  <g
     clip-path="url(#cpMC4wMHw3MjAuMDB8NTA0LjAwfDAuMDA=)"
     id="g274">
    <text
       x="304.35"
       y="495.15"
       style="font-size: 16.00px; font-family: Arial;"
       textLength="88.06px"
       lengthAdjust="spacingAndGlyphs"
       id="text276">release date</text>
  </g>
  <g
     clip-path="url(#cpMC4wMHw3MjAuMDB8NTA0LjAwfDAuMDA=)"
     id="g278">
    <text
       transform="translate(16.93,291.88) rotate(-90)"
       style="font-size: 16.00px; font-family: Arial;"
       textLength="81.84px"
       lengthAdjust="spacingAndGlyphs"
       id="text280">Percentage</text>
  </g>
  <g
     clip-path="url(#cpMC4wMHw3MjAuMDB8NTA0LjAwfDAuMDA=)"
     id="g282">
    <text
       x="669.65"
       y="234.87"
       style="font-size: 11.00px; font-family: Arial;"
       textLength="29.34px"
       lengthAdjust="spacingAndGlyphs"
       id="text284">series</text>
  </g>
  <circle
     cx="678.29"
     cy="250.15"
     r="2.49"
     style="stroke-width: 0.71; stroke: #999999; fill: #999999;"
     clip-path="url(#cpMC4wMHw3MjAuMDB8NTA0LjAwfDAuMDA=)"
     id="circle286" />
  <line
     x1="671.38"
     y1="250.15"
     x2="685.20"
     y2="250.15"
     style="stroke-width: 1.07; stroke: #999999; stroke-linecap: butt;"
     clip-path="url(#cpMC4wMHw3MjAuMDB8NTA0LjAwfDAuMDA=)"
     id="line288" />
  <rect
     x="669.65"
     y="241.51"
     width="17.28"
     height="17.28"
     style="stroke-width: 0.75; stroke: none; fill: #FFFFFF;"
     clip-path="url(#cpMC4wMHw3MjAuMDB8NTA0LjAwfDAuMDA=)"
     id="rect290" />
  <g
     clip-path="url(#cpMC4wMHw3MjAuMDB8NTA0LjAwfDAuMDA=)"
     id="g292">
    <text
       x="674.33"
       y="255.24"
       style="font-size: 14.23px; fill: #999999; font-family: Arial;"
       textLength="7.91px"
       lengthAdjust="spacingAndGlyphs"
       id="text294">a</text>
  </g>
  <rect
     x="669.65"
     y="241.51"
     width="17.28"
     height="17.28"
     style="stroke-width: 0.75; stroke: none; fill: #FFFFFF;"
     clip-path="url(#cpMC4wMHw3MjAuMDB8NTA0LjAwfDAuMDA=)"
     id="rect296" />
  <g
     clip-path="url(#cpMC4wMHw3MjAuMDB8NTA0LjAwfDAuMDA=)"
     id="g298">
    <text
       x="674.33"
       y="255.24"
       style="font-size: 14.23px; fill: #999999; font-family: Arial;"
       textLength="7.91px"
       lengthAdjust="spacingAndGlyphs"
       id="text300">a</text>
  </g>
  <circle
     cx="678.29"
     cy="267.43"
     r="2.49"
     style="stroke-width: 0.71; stroke: #E69F00; fill: #E69F00;"
     clip-path="url(#cpMC4wMHw3MjAuMDB8NTA0LjAwfDAuMDA=)"
     id="circle302" />
  <line
     x1="671.38"
     y1="267.43"
     x2="685.20"
     y2="267.43"
     style="stroke-width: 1.07; stroke: #E69F00; stroke-linecap: butt;"
     clip-path="url(#cpMC4wMHw3MjAuMDB8NTA0LjAwfDAuMDA=)"
     id="line304" />
  <rect
     x="669.65"
     y="258.79"
     width="17.28"
     height="17.28"
     style="stroke-width: 0.75; stroke: none; fill: #FFFFFF;"
     clip-path="url(#cpMC4wMHw3MjAuMDB8NTA0LjAwfDAuMDA=)"
     id="rect306" />
  <g
     clip-path="url(#cpMC4wMHw3MjAuMDB8NTA0LjAwfDAuMDA=)"
     id="g308">
    <text
       x="674.33"
       y="272.52"
       style="font-size: 14.23px; fill: #E69F00; font-family: Arial;"
       textLength="7.91px"
       lengthAdjust="spacingAndGlyphs"
       id="text310">a</text>
  </g>
  <rect
     x="669.65"
     y="258.79"
     width="17.28"
     height="17.28"
     style="stroke-width: 0.75; stroke: none; fill: #FFFFFF;"
     clip-path="url(#cpMC4wMHw3MjAuMDB8NTA0LjAwfDAuMDA=)"
     id="rect312" />
  <g
     clip-path="url(#cpMC4wMHw3MjAuMDB8NTA0LjAwfDAuMDA=)"
     id="g314">
    <text
       x="674.33"
       y="272.52"
       style="font-size: 14.23px; fill: #E69F00; font-family: Arial;"
       textLength="7.91px"
       lengthAdjust="spacingAndGlyphs"
       id="text316">a</text>
  </g>
  <g
     clip-path="url(#cpMC4wMHw3MjAuMDB8NTA0LjAwfDAuMDA=)"
     id="g318">
    <text
       x="692.41"
       y="253.30"
       style="font-size: 8.80px; font-family: Arial;"
       textLength="16.63px"
       lengthAdjust="spacingAndGlyphs"
       id="text320">AoE</text>
  </g>
  <g
     clip-path="url(#cpMC4wMHw3MjAuMDB8NTA0LjAwfDAuMDA=)"
     id="g322">
    <text
       x="692.41"
       y="270.58"
       style="font-size: 8.80px; font-family: Arial;"
       textLength="12.71px"
       lengthAdjust="spacingAndGlyphs"
       id="text324">Civ</text>
  </g>
  <g
     clip-path="url(#cpMC4wMHw3MjAuMDB8NTA0LjAwfDAuMDA=)"
     id="g326">
    <text
       x="43.54"
       y="31.06"
       style="font-size: 11.00px; font-family: Arial;"
       textLength="102.72px"
       lengthAdjust="spacingAndGlyphs"
       id="text328">with later expansions</text>
  </g>
  <g
     clip-path="url(#cpMC4wMHw3MjAuMDB8NTA0LjAwfDAuMDA=)"
     id="g330">
    <text
       x="43.54"
       y="14.93"
       style="font-size: 13.20px; font-family: Arial;"
       textLength="248.01px"
       lengthAdjust="spacingAndGlyphs"
       id="text332">Percentage of female AI leaders per game</text>
  </g>
</svg>
